<svg xmlns="http://www.w3.org/2000/svg" width="50" height="50" version="1.1" viewBox="0 0 50 50"><g fill="rgb(222, 162, 162)" fill-opacity="1" fill-rule="nonzero" stroke="none"><path d="M24.875 36.5c5.875 0 10.625-4.75 10.625-10.625v-15.25C35.5 4.75 30.75 0 24.875 0A10.616 10.616 0 0 0 14.25 10.625v15.25C14.25 31.75 19 36.5 24.875 36.5Zm-8.125-12h5c.75 0 1.25-.5 1.25-1.25S22.5 22 21.75 22h-5v-2.5h5c.75 0 1.25-.5 1.25-1.25S22.5 17 21.75 17h-5v-2.5h5c.75 0 1.25-.5 1.25-1.25S22.5 12 21.75 12h-5v-1.375c0-4.5 3.625-8.125 8.125-8.125S33 6.125 33 10.625V12h-5c-.75 0-1.25.5-1.25 1.25 0 .625.625 1.25 1.25 1.25h5V17h-5c-.75 0-1.25.5-1.25 1.25 0 .625.625 1.25 1.25 1.25h5V22h-5c-.75 0-1.25.5-1.25 1.25 0 .625.625 1.25 1.25 1.25h5v1.375c0 4.5-3.625 8.125-8.125 8.125a8.109 8.109 0 0 1-8.125-8.125Zm0 0"/><path d="M40.5 25.75c0-.625-.625-1.25-1.25-1.25S38 25.125 38 25.75c0 7.25-5.875 13.125-13.125 13.125S11.75 33 11.75 25.75c0-.625-.625-1.25-1.25-1.25s-1.25.625-1.25 1.25c0 8.25 6.375 15 14.375 15.625V47.5H15.5c-.625 0-1.25.5-1.25 1.25S14.875 50 15.5 50h18.75c.625 0 1.25-.5 1.25-1.25s-.625-1.25-1.25-1.25h-8.125v-6.125C34.125 40.75 40.5 34 40.5 25.75Zm0 0"/></g></svg>