<svg xmlns="http://www.w3.org/2000/svg" width="50" height="50" version="1.1" viewBox="0 0 50 50"><path d="M45.832 41.668a.837.837 0 0 0 .836-.836v-30a.836.836 0 0 0-.836-.832.833.833 0 0 0-.832.832v30c0 .461.371.836.832.836Zm2.5 4.164V45h-2.5a.834.834 0 0 1 0-1.668h2.5v-35h-2.5A.83.83 0 0 1 45 7.5a.83.83 0 0 1 .832-.832h1.984l-1.984-3.973-2.5 5v38.137c0 1.379 1.121 2.5 2.5 2.5s2.5-1.121 2.5-2.5ZM50.016 7.5a.79.79 0 0 1-.016.168v38.164A4.174 4.174 0 0 1 45.832 50a4.171 4.171 0 0 1-4.164-4.168V7.5a.81.81 0 0 1 .086-.371L45.086.46c.285-.566 1.21-.566 1.492 0l3.266 6.531c.11.14.172.317.172.508ZM25.832 25H17.5a.834.834 0 0 0 0 1.668h8.332a.837.837 0 0 0 .836-.836.836.836 0 0 0-.836-.832ZM17.5 23.332h5a.83.83 0 0 0 .832-.832.83.83 0 0 0-.832-.832h-5a.83.83 0 0 0-.832.832c0 .46.371.832.832.832ZM13.332 30H30V18.332H13.332Zm-1.664.832V17.5a.83.83 0 0 1 .832-.832h18.332c.461 0 .836.371.836.832v13.332a.837.837 0 0 1-.836.836H12.5a.834.834 0 0 1-.832-.836Zm-10-23.258v38.258c0 1.332 1.168 2.5 2.5 2.5h31.664c1.332 0 2.5-1.168 2.5-2.5v-37.5H4.168c-.688 0-1.664-.195-2.5-.758Zm37.5-5.906H3.332c-.918 0-1.664.746-1.664 1.664v.836c0 2.352 2.086 2.492 2.504 2.5h34.996A.83.83 0 0 1 40 7.5v38.332C40 48.09 38.09 50 35.832 50H4.168C1.91 50 0 48.09 0 45.832v-42.5A3.338 3.338 0 0 1 3.332 0h35.836a.834.834 0 0 1 0 1.668Zm-35 45c.46 0 .832-.375.832-.836v-35A.833.833 0 0 0 4.168 10a.836.836 0 0 0-.836.832v35c0 .461.375.836.836.836ZM37.5 3.332A.834.834 0 0 1 37.5 5H4.168a.836.836 0 0 1-.836-.832c0-.461.375-.836.836-.836Zm0 0" fill="#000" fill-opacity="1" fill-rule="evenodd"/></svg>