<svg xmlns="http://www.w3.org/2000/svg" width="50" height="50" version="1.1" viewBox="0 0 50 50"><path d="M20.313 3.125a4.686 4.686 0 0 0-4.688 4.688v1.562H4.687A4.686 4.686 0 0 0 0 14.063v25a4.686 4.686 0 0 0 4.688 4.687h40.624A4.686 4.686 0 0 0 50 39.062v-25a4.686 4.686 0 0 0-4.688-4.687H34.376V7.812a4.686 4.686 0 0 0-4.688-4.687Zm0 3.125h9.375c.863 0 1.562.7 1.562 1.563v1.562h-12.5V7.812c0-.863.7-1.562 1.563-1.562Zm5.894 21.605 20.668-5.507v16.715c0 .863-.7 1.562-1.563 1.562H4.688c-.864 0-1.563-.7-1.563-1.563V22.345l20.668 5.511a4.682 4.682 0 0 0 2.414 0ZM4.687 12.5h40.626c.863 0 1.562.7 1.562 1.563v5.05l-21.473 5.723c-.261.07-.543.07-.804 0L3.125 19.113v-5.05c0-.864.7-1.563 1.563-1.563Zm0 0" fill="#000" fill-opacity="1" fill-rule="nonzero"/></svg>