<svg xmlns="http://www.w3.org/2000/svg" width="50" height="50" version="1.1" viewBox="0 0 50 50"><g fill="#000" fill-opacity="1" fill-rule="nonzero" stroke="none"><path d="M34.418 7.625a14.591 14.591 0 0 0-15.715-2.023 14.58 14.58 0 0 0-8.285 13.503 19.766 19.766 0 0 0 6.25 13c1.062 1.208 2.082 2.458 2.082 3.102v4.961a5.664 5.664 0 0 0 5.668 5.664h1.164a5.664 5.664 0 0 0 5.668-5.664v-4.961c0-.645 1.105-1.895 2.082-3.102a19.647 19.647 0 0 0 6.25-13.355c0-4.29-1.89-8.355-5.164-11.125ZM25.582 43.75h-1.164a3.585 3.585 0 0 1-3.586-3.582V37.5h8.336v2.668a3.585 3.585 0 0 1-3.586 3.582Zm6.25-13.02c-1.52 1.688-2.707 3.04-2.707 4.477v.211h-8.293v-.211c0-1.437-1.187-2.789-2.707-4.477A17.982 17.982 0 0 1 12.5 19.062a12.502 12.502 0 1 1 25-.312c0 5.625-3.25 9.293-5.625 11.98Zm12.961-14.062h-2.086c-.574 0-1.039.465-1.039 1.039a1.04 1.04 0 0 0 1.039 1.043h2.086a1.04 1.04 0 0 0 1.039-1.043c0-.574-.465-1.039-1.039-1.039ZM8.332 17.707c0-.574-.465-1.039-1.039-1.039H5.207c-.574 0-1.039.465-1.039 1.039a1.04 1.04 0 0 0 1.039 1.043h2.086a1.04 1.04 0 0 0 1.039-1.043ZM8.02 4.48a1.03 1.03 0 0 0-1.457 1.457L8.645 8.02a1 1 0 0 0 1.46 0 1.002 1.002 0 0 0 0-1.457Zm32.605 3.852a.975.975 0 0 0 .73-.312l2.083-2.082A1.03 1.03 0 0 0 41.98 4.48l-2.085 2.082a1.004 1.004 0 0 0 0 1.458.975.975 0 0 0 .73.312Zm.73 19.063a1.035 1.035 0 0 0-1.46 0 1.035 1.035 0 0 0 0 1.46l2.085 2.082a.99.99 0 0 0 .727.317.993.993 0 0 0 .73-.317.993.993 0 0 0 .317-.73.99.99 0 0 0-.316-.727Zm-32.71 0L6.563 29.48a.99.99 0 0 0-.317.727c0 .277.113.543.316.73a.993.993 0 0 0 .731.317.99.99 0 0 0 .727-.317l2.085-2.082a1.035 1.035 0 0 0 0-1.46 1.035 1.035 0 0 0-1.46 0Zm0 0"/><path d="m27.395 14.895-6.25 6.25a.982.982 0 0 0-.227 1.125c.16.39.535.644.957.648h3.73l-2.375 2.395a.993.993 0 0 0-.316.73c0 .273.113.539.316.727a.99.99 0 0 0 .727.316.993.993 0 0 0 .73-.316l4.168-4.165a.982.982 0 0 0 .227-1.125 1.042 1.042 0 0 0-.957-.648h-3.73l4.46-4.477a1.035 1.035 0 0 0 0-1.46 1.035 1.035 0 0 0-1.46 0Zm0 0"/></g></svg>