<svg xmlns="http://www.w3.org/2000/svg" width="50" height="50" version="1.1" viewBox="0 0 50 50"><g fill="#000" fill-opacity="1" fill-rule="nonzero" stroke="none"><path d="M45.313 9.375c.863 0 1.562.7 1.562 1.563v28.124c0 .864-.7 1.563-1.563 1.563H4.688c-.864 0-1.563-.7-1.563-1.563V10.939c0-.864.7-1.563 1.563-1.563ZM4.687 6.25A4.686 4.686 0 0 0 0 10.938v28.124a4.686 4.686 0 0 0 4.688 4.688h40.624A4.686 4.686 0 0 0 50 39.062V10.939a4.686 4.686 0 0 0-4.688-4.688Zm0 0"/><path d="M21.875 17.188c0-.864.7-1.563 1.563-1.563h15.625a1.562 1.562 0 1 1 0 3.125H23.437c-.863 0-1.562-.7-1.562-1.563Zm-4.676-2.668c.293.293.461.69.461 1.105 0 .414-.168.813-.46 1.105l-4.688 4.688c-.293.293-.692.46-1.106.46-.414 0-.812-.167-1.105-.46l-1.563-1.563a1.558 1.558 0 0 1 0-2.21 1.558 1.558 0 0 1 2.211 0l.457.457 3.582-3.582a1.57 1.57 0 0 1 1.106-.461c.414 0 .812.168 1.105.46Zm4.676 15.168c0-.864.7-1.563 1.563-1.563h15.625a1.562 1.562 0 1 1 0 3.125H23.437c-.863 0-1.562-.7-1.562-1.563Zm-4.676-2.668c.293.293.461.69.461 1.105 0 .414-.168.813-.46 1.105l-4.688 4.688c-.293.293-.692.46-1.106.46-.414 0-.812-.167-1.105-.46l-1.563-1.563a1.558 1.558 0 0 1 0-2.21 1.558 1.558 0 0 1 2.211 0l.457.457 3.582-3.582a1.57 1.57 0 0 1 1.106-.461c.414 0 .812.168 1.105.46Zm0 0"/></g></svg>