<svg xmlns="http://www.w3.org/2000/svg" width="50" height="50" version="1.1" viewBox="0 0 50 50"><path d="M41.668 37.5c2.3 0 4.145-1.863 4.145-4.168l.019-22.914a4.164 4.164 0 0 0-4.164-4.168H8.332a4.164 4.164 0 0 0-4.164 4.168v22.914A4.164 4.164 0 0 0 8.332 37.5H0c0 2.3 1.863 4.168 4.168 4.168h41.664A4.167 4.167 0 0 0 50 37.5ZM8.332 10.418h33.336v22.914H8.332ZM25 39.582a2.089 2.089 0 0 1-2.082-2.082c0-1.145.937-2.082 2.082-2.082 1.145 0 2.082.937 2.082 2.082A2.089 2.089 0 0 1 25 39.582Zm0 0" fill="rgb(222, 162, 162)" fill-opacity="1" fill-rule="nonzero"/></svg>