<svg xmlns="http://www.w3.org/2000/svg" width="50" height="50" version="1.1" viewBox="0 0 50 50"><path d="M46.8 14.992a.963.963 0 0 1-.19.285l-29.067 29.07a.995.995 0 0 1-.496.45L2.617 48.84c-.031.015-.062.015-.097.027l-.047.016c-.012 0-.02 0-.028.004-.097.023-.195.047-.297.047a1.06 1.06 0 0 1-.293-.043c-.023-.008-.042-.004-.066-.012-.008 0-.012-.008-.02-.012a.9.9 0 0 1-.25-.148.547.547 0 0 1-.206-.207.9.9 0 0 1-.149-.25c-.004-.008-.012-.012-.012-.02-.007-.023-.004-.043-.011-.066a1.206 1.206 0 0 1-.043-.293c0-.102.023-.2.047-.297.003-.008.003-.016.003-.023l.016-.051c.012-.032.016-.067.027-.098l4.043-14.43c.086-.226.254-.379.45-.496L34.309 3.863c.043-.047.09-.086.132-.133l.313-.308c.016-.016.035-.024.05-.035 1.505-1.438 3.524-2.344 5.77-2.344a8.379 8.379 0 0 1 8.383 8.383c0 2.144-.828 4.082-2.156 5.566Zm-3.937 1.153-3.77-3.77L14.47 37.004c.004.008.015.008.02.02l2.472 5.027ZM3.707 46.325l2.902-.81-2.09-2.09Zm1.441-5.15 3.707 3.708 6.375-1.785s-2.695-5.594-2.699-5.598l-5.597-2.7Zm7.864-5.628c.008.004.011.012.02.02l24.624-24.63-3.77-3.769L7.98 33.07ZM40.543 3.125c-1.855 0-3.512.809-4.676 2.078l-.008-.008-.535.535 8.98 8.977.548-.55-.004-.005c1.257-1.164 2.058-2.816 2.058-4.664a6.362 6.362 0 0 0-6.363-6.363Zm0 0" fill="rgb(222, 162, 162)" fill-opacity="1" fill-rule="evenodd"/></svg>