<svg xmlns="http://www.w3.org/2000/svg" width="60" height="60" version="1.1" viewBox="0 0 50 50"><path d="M25 25c5.176 0 9.375-4.2 9.375-9.375 0-5.176-4.2-9.375-9.375-9.375-5.176 0-9.375 4.2-9.375 9.375 0 5.176 4.2 9.375 9.375 9.375Zm6.25-9.375a6.248 6.248 0 0 1-6.25 6.25 6.248 6.248 0 0 1-6.25-6.25A6.248 6.248 0 0 1 25 9.375a6.248 6.248 0 0 1 6.25 6.25Zm12.5 25c0 3.125-3.125 3.125-3.125 3.125H9.375s-3.125 0-3.125-3.125 3.125-12.5 18.75-12.5 18.75 9.375 18.75 12.5Zm-3.125-.012c-.004-.77-.48-3.082-2.602-5.199-2.035-2.039-5.87-4.164-13.023-4.164-7.156 0-10.988 2.125-13.023 4.164-2.122 2.117-2.594 4.43-2.602 5.2Zm0 0" fill="#000" fill-opacity="1" fill-rule="nonzero"/></svg>